<?xml version="1.0" encoding="UTF-8"?>
<svg width="180px" height="180px" viewBox="0 0 180 180" version="1.1" xmlns="http://www.w3.org/2000/svg" xmlns:xlink="http://www.w3.org/1999/xlink">
    <title>Logo 180x180</title>
    <g id="Logo-180x180" stroke="none" stroke-width="1" fill="none" fill-rule="evenodd">
        <g id="Group">
            <path d="M90,180 C139.705627,180 180,139.705627 180,90 C180,40.2943725 139.705627,0 90,0 C40.2943725,0 0,40.2943725 0,90 C0,139.705627 40.2943725,180 90,180 Z" id="Oval" fill="#783CC8"></path>
            <path d="M78.4868847,17.9510182 L19.6642669,77.1054961 L36.326331,93.8070245 L57.2222007,73.0374386 L101.178377,116.502294 C103.733109,118.077055 106.498293,118.714634 109.473929,118.415031 C112.449565,118.115427 114.950714,116.766144 116.977377,114.367181 C118.980591,111.997943 119.982197,109.420674 119.982197,106.635375 C119.982197,103.850076 119.07838,101.311395 117.270745,99.019332 L74.582881,56.0695575 L95.4393841,34.8516492 L78.4868847,17.9510182 Z" id="Path-3" stroke="#979797" stroke-width="0.5" fill="#FFFFFF" stroke-linecap="round" stroke-linejoin="bevel"></path>
            <path d="M99.4813493,39.2430124 L82.6454232,55.9394289 L120.982411,94.3800104 C127.599809,103.41994 127.441183,111.630807 120.506534,119.012611 C113.571884,126.394414 105.035672,126.219166 94.8978963,118.486865 L57.5504811,80.9513192 L40.5440351,97.9401567 L82.0959457,139.320305 C88.8432017,144.553723 96.2101228,147.459856 104.196709,148.038705 C112.183295,148.617554 119.978289,147.057029 127.58169,143.357131 L142.644853,162.705634 C147.753209,158.773871 151.53801,155.549494 153.999257,153.032503 C156.460504,150.515512 159.800358,146.453868 164.018821,140.847572 L144.74276,126.163667 C149.016772,118.640929 150.469607,110.052679 149.101266,100.398917 C147.732924,90.7451551 144.046998,83.1813207 138.043488,77.707414 L99.4813493,39.2430124 Z" id="Path-4" stroke="#979797" stroke-width="0.5" fill="#FFFFFF"></path>
        </g>
    </g>
</svg>